<svg width="29" height="29" viewBox="0 0 29 29" fill="none" xmlns="http://www.w3.org/2000/svg">
<path d="M3.39236 28.6316C2.53681 28.6316 1.80414 28.3272 1.19436 27.7185C0.58562 27.1087 0.28125 26.376 0.28125 25.5205V3.7427C0.28125 2.88715 0.58562 2.15448 1.19436 1.5447C1.80414 0.935962 2.53681 0.631592 3.39236 0.631592H25.1701C26.0257 0.631592 26.7584 0.935962 27.3681 1.5447C27.9769 2.15448 28.2812 2.88715 28.2812 3.7427V25.5205C28.2812 26.376 27.9769 27.1087 27.3681 27.7185C26.7584 28.3272 26.0257 28.6316 25.1701 28.6316H3.39236ZM11.1701 25.5205V16.1871H3.39236V25.5205H11.1701ZM14.2812 25.5205H25.1701V16.1871H14.2812V25.5205ZM3.39236 13.076H25.1701V3.7427H3.39236V13.076Z" fill="white"/>
</svg>
