<svg width="29" height="17" viewBox="0 0 29 17" fill="none" xmlns="http://www.w3.org/2000/svg">
<path d="M25.5979 0.274414C25.181 0.274558 24.7698 0.37883 24.397 0.578949C24.0242 0.779069 23.7002 1.06953 23.4505 1.42726C23.2008 1.78499 23.0324 2.20015 22.9587 2.63978C22.885 3.0794 22.908 3.53138 23.0258 3.95983L18.8641 8.4173C18.3152 8.22145 17.7219 8.22145 17.173 8.4173L14.0877 5.1123C14.1893 4.68792 14.1989 4.2443 14.1158 3.81534C14.0327 3.38639 13.8592 2.98345 13.6085 2.63736C13.3577 2.29126 13.0364 2.01116 12.6692 1.81847C12.3019 1.62578 11.8983 1.52561 11.4894 1.52561C11.0804 1.52561 10.6768 1.62578 10.3096 1.81847C9.94227 2.01116 9.62098 2.29126 9.37025 2.63736C9.11952 2.98345 8.94599 3.38639 8.86292 3.81534C8.77985 4.2443 8.78944 4.68792 8.89097 5.1123L3.73094 10.636C3.15806 10.4544 2.54501 10.4824 1.98868 10.7158C1.43235 10.9491 0.964476 11.3744 0.659012 11.9244C0.353548 12.4744 0.227918 13.1178 0.301979 13.7528C0.37604 14.3879 0.645566 14.9784 1.06796 15.431C1.49035 15.8836 2.04151 16.1726 2.63433 16.2521C3.22714 16.3316 3.8278 16.1973 4.34135 15.8702C4.8549 15.5432 5.25206 15.0421 5.47005 14.4463C5.68804 13.8504 5.71442 13.1937 5.54503 12.5799L10.6397 7.12304C11.1886 7.31902 11.782 7.31902 12.3308 7.12304L15.4167 10.4287C15.3151 10.853 15.3055 11.2967 15.3886 11.7256C15.4717 12.1546 15.6452 12.5575 15.8959 12.9036C16.1467 13.2497 16.468 13.5298 16.8353 13.7225C17.2025 13.9152 17.6061 14.0154 18.015 14.0154C18.424 14.0154 18.8276 13.9152 19.1948 13.7225C19.5621 13.5298 19.8834 13.2497 20.1342 12.9036C20.3849 12.5575 20.5584 12.1546 20.6415 11.7256C20.7246 11.2967 20.715 10.853 20.6134 10.4287L24.8399 5.90373C25.2089 6.02033 25.5969 6.05056 25.9778 5.99235C26.3586 5.93415 26.7233 5.78887 27.0471 5.56638C27.3709 5.34389 27.6463 5.04939 27.8545 4.70287C28.0627 4.35634 28.1988 3.9659 28.2538 3.55803C28.3087 3.15016 28.2811 2.73441 28.1728 2.33898C28.0645 1.94355 27.8781 1.5777 27.6262 1.26625C27.3743 0.954794 27.0628 0.705028 26.7128 0.533896C26.3629 0.362763 25.9826 0.274268 25.5979 0.274414Z" fill="white"/>
</svg>
