<svg width="33" height="34" viewBox="0 0 33 34" fill="none" xmlns="http://www.w3.org/2000/svg">
<path d="M6.48749 29.4158L2.7774 33.1259C2.26659 33.6367 1.68158 33.7512 1.02237 33.4695C0.363153 33.1877 0.0340835 32.6834 0.0351589 31.9564V6.83262C0.0351589 5.94542 0.351323 5.18566 0.983652 4.55333C1.61598 3.921 2.37521 3.60537 3.26133 3.60645H19.5535C19.4459 4.14414 19.3922 4.68184 19.3922 5.21953C19.3922 5.75723 19.4459 6.29492 19.5535 6.83262H3.26133V26.1896H29.0707V13.1236C29.689 12.9892 30.267 12.8075 30.8047 12.5784C31.3424 12.3494 31.8398 12.0472 32.2968 11.6719V26.1896C32.2968 27.0768 31.9807 27.8366 31.3483 28.4689C30.716 29.1012 29.9568 29.4169 29.0707 29.4158H6.48749ZM27.4576 10.0588C26.1134 10.0588 24.9708 9.5883 24.0298 8.64734C23.0888 7.70637 22.6183 6.56377 22.6183 5.21953C22.6183 3.8753 23.0888 2.73269 24.0298 1.79173C24.9708 0.850762 26.1134 0.38028 27.4576 0.38028C28.8018 0.38028 29.9444 0.850762 30.8854 1.79173C31.8264 2.73269 32.2968 3.8753 32.2968 5.21953C32.2968 6.56377 31.8264 7.70637 30.8854 8.64734C29.9444 9.5883 28.8018 10.0588 27.4576 10.0588Z" fill="white"/>
</svg>
