<svg width="30" height="30" viewBox="0 0 30 30" fill="none" xmlns="http://www.w3.org/2000/svg">
<path d="M3.22617 29.5178C2.33897 29.5178 1.57921 29.2016 0.946883 28.5693C0.314554 27.9369 -0.00107265 27.1777 2.73868e-06 26.2916V6.12805C2.73868e-06 5.72477 0.0672146 5.36183 0.201638 5.03921C0.336062 4.7166 0.510813 4.40742 0.725891 4.11169L2.98421 1.36945C3.19929 1.07371 3.46813 0.851647 3.79075 0.703243C4.11337 0.554839 4.46287 0.481175 4.83926 0.48225H24.1963C24.5727 0.48225 24.9222 0.555915 25.2448 0.703243C25.5674 0.850571 25.8362 1.07264 26.0513 1.36945L28.3096 4.11169C28.5247 4.40742 28.6995 4.7166 28.8339 5.03921C28.9683 5.36183 29.0355 5.72477 29.0355 6.12805V26.2916C29.0355 27.1788 28.7194 27.9386 28.087 28.5709C27.4547 29.2032 26.6955 29.5188 25.8094 29.5178H3.22617ZM3.8714 5.3215H25.1641L23.793 3.70842H5.24253L3.8714 5.3215ZM3.22617 8.54767V26.2916H25.8094V8.54767H3.22617ZM14.5178 24.6785L20.9701 18.2262L18.7118 15.9679L16.1308 18.5488V11.7738H12.9047V18.5488L10.3237 15.9679L8.06542 18.2262L14.5178 24.6785Z" fill="white"/>
</svg>
