<svg width="25" height="25" viewBox="0 0 25 25" fill="none" xmlns="http://www.w3.org/2000/svg">
<path d="M12.2812 17.6859C12.5413 17.6859 12.7561 17.5943 12.9256 17.4111C13.0953 17.228 13.1805 16.9971 13.1813 16.7185V5.75435C13.1813 5.47487 13.0961 5.24398 12.9256 5.06168C12.7552 4.87937 12.5405 4.78779 12.2812 4.78693C12.0213 4.78693 11.8065 4.87851 11.6369 5.06168C11.4673 5.24484 11.3821 5.47573 11.3813 5.75435V16.7185C11.3813 16.9979 11.4665 17.2288 11.6369 17.4111C11.8073 17.5935 12.0221 17.685 12.2812 17.6859ZM8.98125 15.1061C9.24125 15.1061 9.45605 15.0145 9.62565 14.8314C9.79525 14.6482 9.88045 14.4173 9.88125 14.1387V8.33414C9.88125 8.05467 9.79605 7.82377 9.62565 7.64147C9.45525 7.45916 9.24045 7.36758 8.98125 7.36672C8.72125 7.36672 8.50645 7.4583 8.33685 7.64147C8.16725 7.82464 8.08205 8.05553 8.08125 8.33414V14.1387C8.08125 14.4182 8.16645 14.649 8.33685 14.8314C8.50725 15.0137 8.72205 15.1052 8.98125 15.1061ZM5.98125 12.5263C6.24125 12.5263 6.45605 12.4347 6.62565 12.2516C6.79525 12.0684 6.88045 11.8375 6.88125 11.5589V10.9139C6.88125 10.6345 6.79605 10.4036 6.62565 10.2213C6.45525 10.039 6.24045 9.94738 5.98125 9.94652C5.72125 9.94652 5.50645 10.0381 5.33685 10.2213C5.16725 10.4044 5.08205 10.6353 5.08125 10.9139V11.5589C5.08125 11.8384 5.16645 12.0693 5.33685 12.2516C5.50725 12.4339 5.72205 12.5254 5.98125 12.5263ZM15.5813 15.1061C15.8412 15.1061 16.056 15.0145 16.2256 14.8314C16.3952 14.6482 16.4804 14.4173 16.4812 14.1387V8.33414C16.4812 8.05467 16.396 7.82377 16.2256 7.64147C16.0552 7.45916 15.8405 7.36758 15.5813 7.36672C15.3212 7.36672 15.1065 7.4583 14.9369 7.64147C14.7673 7.82464 14.682 8.05553 14.6812 8.33414V14.1387C14.6812 14.4182 14.7664 14.649 14.9369 14.8314C15.1073 15.0137 15.3221 15.1052 15.5813 15.1061ZM18.5812 12.5263C18.8412 12.5263 19.056 12.4347 19.2257 12.2516C19.3953 12.0684 19.4804 11.8375 19.4812 11.5589V10.9139C19.4812 10.6345 19.396 10.4036 19.2257 10.2213C19.0553 10.039 18.8405 9.94738 18.5812 9.94652C18.3212 9.94652 18.1064 10.0381 17.9368 10.2213C17.7672 10.4044 17.682 10.6353 17.6812 10.9139V11.5589C17.6812 11.8384 17.7664 12.0693 17.9368 12.2516C18.1072 12.4339 18.3221 12.5254 18.5812 12.5263ZM0.281252 23.5872V3.49703C0.281252 2.78759 0.516452 2.18005 0.986852 1.67441C1.45725 1.16877 2.02205 0.916379 2.68125 0.917239H21.8812C22.5412 0.917239 23.1064 1.17006 23.5768 1.6757C24.0472 2.18134 24.282 2.78845 24.2812 3.49703V18.9758C24.2812 19.6852 24.046 20.2928 23.5756 20.7984C23.1052 21.3041 22.5404 21.5564 21.8812 21.5556H5.08125L2.32125 24.5223C1.94125 24.9308 1.50605 25.0224 1.01565 24.7971C0.525252 24.5718 0.280452 24.1685 0.281252 23.5872ZM2.68125 20.4914L4.09125 18.9758H21.8812V3.49703H2.68125V20.4914Z" fill="white"/>
</svg>
