<svg width="14" height="23" viewBox="0 0 14 23" fill="none" xmlns="http://www.w3.org/2000/svg">
<path d="M5.1202 18.8766H8.40883V22.1652H5.1202V18.8766ZM7.31262 0.240967C13.1774 0.482133 15.7315 6.40168 12.2456 10.8413C11.3357 11.9375 9.86679 12.661 9.14329 13.5819C8.40883 14.4917 8.40883 15.5879 8.40883 16.6841H5.1202C5.1202 14.8535 5.1202 13.3078 5.85466 12.2116C6.57816 11.1154 8.04708 10.4686 8.95694 9.74512C11.6098 7.28961 10.952 3.81462 7.31262 3.5296C6.44042 3.5296 5.60394 3.87608 4.9872 4.49282C4.37047 5.10956 4.02399 5.94604 4.02399 6.81824H0.735352C0.735352 5.07384 1.42831 3.40088 2.66179 2.1674C3.89527 0.933927 5.56822 0.240967 7.31262 0.240967Z" fill="white"/>
</svg>
