<svg width="25" height="32" viewBox="0 0 25 32" fill="none" xmlns="http://www.w3.org/2000/svg">
<path d="M13.6123 18.1314L13.6226 18.0836C13.8207 17.2672 14.0701 16.2493 13.8754 15.3271C13.7456 14.5995 13.2093 14.316 12.7516 14.2955C12.2119 14.2716 11.7303 14.5791 11.6107 15.0265C11.3853 15.8463 11.5868 16.9667 11.9557 18.3944C11.4912 19.5011 10.7499 21.11 10.2068 22.0664C9.19579 22.589 7.83974 23.3951 7.63821 24.413C7.59722 24.6008 7.64504 24.8399 7.75776 25.0551C7.88414 25.2942 8.08567 25.4787 8.32135 25.5675C8.42383 25.6051 8.54679 25.6358 8.69026 25.6358C9.29143 25.6358 10.2649 25.1508 11.5629 22.9237C11.761 22.8588 11.966 22.7905 12.1641 22.7222C13.0931 22.4079 14.0564 22.08 14.9274 21.9331C15.8906 22.4489 16.9871 22.7802 17.7317 22.7802C18.4695 22.7802 18.7599 22.343 18.8692 22.08C19.0605 21.6189 18.9682 21.0382 18.6574 20.7274C18.2065 20.2833 17.1101 20.1672 15.4022 20.379C14.5619 19.8666 14.012 19.1698 13.6123 18.1314ZM9.86527 23.3199C9.39048 24.0099 9.03183 24.3549 8.83713 24.5052C9.06599 24.0851 9.51345 23.641 9.86527 23.3199ZM12.8575 15.2759C13.0351 15.5799 13.0112 16.4987 12.8745 16.9632C12.7072 16.2835 12.6833 15.3203 12.7823 15.2075C12.8096 15.211 12.8336 15.2315 12.8575 15.2759ZM12.8028 19.3918C13.1683 20.0237 13.6294 20.5668 14.1384 20.9699C13.4006 21.1373 12.7277 21.414 12.1265 21.6599C11.983 21.718 11.843 21.776 11.7064 21.8307C12.1607 21.0075 12.5398 20.075 12.8028 19.3918ZM18.1177 21.6291C18.1211 21.636 18.1245 21.6462 18.104 21.6599H18.0972L18.0904 21.6701C18.0631 21.6872 17.783 21.8512 16.5772 21.3764C17.964 21.3115 18.1143 21.6257 18.1177 21.6291ZM24.6554 8.36923L17.3048 1.01855C17.0998 0.813607 16.8231 0.697472 16.5328 0.697472H2.02273C1.41814 0.697472 0.929688 1.18592 0.929688 1.79051V30.2095C0.929688 30.8141 1.41814 31.3025 2.02273 31.3025H23.8835C24.4881 31.3025 24.9765 30.8141 24.9765 30.2095V9.1446C24.9765 8.85427 24.8604 8.57417 24.6554 8.36923ZM22.4557 9.64672H16.0273V3.21829L22.4557 9.64672ZM22.5172 28.8432H3.38902V3.15681H13.7046V10.5348C13.7046 10.9153 13.8557 11.2802 14.1248 11.5492C14.3938 11.8183 14.7587 11.9694 15.1392 11.9694H22.5172V28.8432Z" fill="white"/>
</svg>
