<svg width="25" height="32" viewBox="0 0 25 32" fill="none" xmlns="http://www.w3.org/2000/svg">
<path d="M12.7549 18.026L12.7652 17.9782C12.9633 17.1618 13.2126 16.1439 13.0179 15.2217C12.8881 14.4941 12.3519 14.2106 11.8942 14.1901C11.3545 14.1662 10.8728 14.4736 10.7533 14.9211C10.5279 15.7409 10.7294 16.8612 11.0983 18.289C10.6337 19.3957 9.89253 21.0045 9.34942 21.9609C8.33836 22.4835 6.98231 23.2897 6.78078 24.3075C6.7398 24.4954 6.78762 24.7345 6.90034 24.9497C7.02672 25.1888 7.22825 25.3733 7.46393 25.4621C7.56641 25.4996 7.68937 25.5304 7.83283 25.5304C8.434 25.5304 9.40749 25.0453 10.7055 22.8183C10.9036 22.7534 11.1085 22.6851 11.3066 22.6168C12.2357 22.3025 13.199 21.9746 14.07 21.8277C15.0332 22.3435 16.1297 22.6748 16.8743 22.6748C17.6121 22.6748 17.9024 22.2376 18.0117 21.9746C18.203 21.5135 18.1108 20.9328 17.8 20.622C17.3491 20.1779 16.2526 20.0618 14.5448 20.2736C13.7045 19.7612 13.1546 19.0644 12.7549 18.026ZM9.00785 23.2145C8.53306 23.9045 8.17441 24.2495 7.97971 24.3998C8.20857 23.9796 8.65603 23.5356 9.00785 23.2145ZM12 15.1704C12.1777 15.4744 12.1537 16.3933 12.0171 16.8578C11.8497 16.1781 11.8258 15.2148 11.9249 15.1021C11.9522 15.1055 11.9761 15.126 12 15.1704ZM11.9454 19.2864C12.3109 19.9183 12.772 20.4614 13.2809 20.8645C12.5431 21.0318 11.8702 21.3085 11.2691 21.5545C11.1256 21.6125 10.9856 21.6706 10.8489 21.7252C11.3032 20.902 11.6824 19.9696 11.9454 19.2864ZM17.2603 21.5237C17.2637 21.5305 17.2671 21.5408 17.2466 21.5545H17.2398L17.233 21.5647C17.2056 21.5818 16.9255 21.7457 15.7198 21.2709C17.1066 21.206 17.2569 21.5203 17.2603 21.5237ZM23.798 8.2638L16.4473 0.913121C16.2424 0.708176 15.9657 0.592041 15.6754 0.592041H1.1653C0.560717 0.592041 0.0722656 1.08049 0.0722656 1.68508V30.1041C0.0722656 30.7086 0.560717 31.1971 1.1653 31.1971H23.0261C23.6306 31.1971 24.1191 30.7086 24.1191 30.1041V9.03917C24.1191 8.74883 24.003 8.46874 23.798 8.2638ZM21.5983 9.54129H15.1698V3.11286L21.5983 9.54129ZM21.6598 28.7378H2.5316V3.05138H12.8471V10.4294C12.8471 10.8099 12.9983 11.1748 13.2673 11.4438C13.5364 11.7128 13.9013 11.864 14.2818 11.864H21.6598V28.7378Z" fill="#484848"/>
</svg>
