<svg width="19" height="13" viewBox="0 0 19 13" fill="none" xmlns="http://www.w3.org/2000/svg">
<path d="M8.57227 12.8101C8.28894 12.8101 8.05127 12.7141 7.85927 12.5221C7.66727 12.3301 7.5716 12.0927 7.57227 11.8101C7.57227 11.5267 7.66827 11.2891 7.86027 11.0971C8.05227 10.9051 8.2896 10.8094 8.57227 10.8101H10.5723C10.8556 10.8101 11.0933 10.9061 11.2853 11.0981C11.4773 11.2901 11.5729 11.5274 11.5723 11.8101C11.5723 12.0934 11.4763 12.3311 11.2843 12.5231C11.0923 12.7151 10.8549 12.8107 10.5723 12.8101H8.57227ZM1.57227 2.81006C1.28894 2.81006 1.05127 2.71406 0.859269 2.52206C0.667269 2.33006 0.571602 2.09273 0.572269 1.81006C0.572269 1.52673 0.668269 1.28906 0.860269 1.09706C1.05227 0.905062 1.2896 0.809395 1.57227 0.810062H17.5723C17.8556 0.810062 18.0933 0.906062 18.2853 1.09806C18.4773 1.29006 18.5729 1.5274 18.5723 1.81006C18.5723 2.0934 18.4763 2.33106 18.2843 2.52306C18.0923 2.71506 17.8549 2.81073 17.5723 2.81006H1.57227ZM4.57227 7.81006C4.28894 7.81006 4.05127 7.71406 3.85927 7.52206C3.66727 7.33006 3.5716 7.09273 3.57227 6.81006C3.57227 6.52673 3.66827 6.28906 3.86027 6.09706C4.05227 5.90506 4.2896 5.8094 4.57227 5.81006H14.5723C14.8556 5.81006 15.0933 5.90606 15.2853 6.09806C15.4773 6.29006 15.5729 6.5274 15.5723 6.81006C15.5723 7.0934 15.4763 7.33106 15.2843 7.52306C15.0923 7.71506 14.8549 7.81073 14.5723 7.81006H4.57227Z" fill="white"/>
</svg>
