<svg width="38" height="41" viewBox="0 0 38 41" fill="none" xmlns="http://www.w3.org/2000/svg">
<path d="M0.772461 40.7297V4.26782H22.8319C22.7104 4.87552 22.6496 5.48322 22.6496 6.09092C22.6496 6.69862 22.7104 7.30632 22.8319 7.91401H4.41865V29.7912H33.5882V15.0241C34.287 14.8722 34.9403 14.6668 35.548 14.4079C36.1557 14.149 36.7178 13.8075 37.2344 13.3833V33.4374H8.06484L0.772461 40.7297Z" fill="white"/>
<path d="M31.7652 11.5602C30.2459 11.5602 28.9546 11.0284 27.8911 9.96495C26.8276 8.90147 26.2959 7.61012 26.2959 6.09087C26.2959 4.57162 26.8276 3.28026 27.8911 2.21679C28.9546 1.15332 30.2459 0.621582 31.7652 0.621582C33.2844 0.621582 34.5758 1.15332 35.6393 2.21679C36.7027 3.28026 37.2345 4.57162 37.2345 6.09087C37.2345 7.61012 36.7027 8.90147 35.6393 9.96495C34.5758 11.0284 33.2844 11.5602 31.7652 11.5602Z" fill="#FF0000"/>
</svg>
