<svg width="19" height="23" viewBox="0 0 19 23" fill="none" xmlns="http://www.w3.org/2000/svg">
<path d="M1.56696 20.4013C1.56696 21.7457 2.72411 22.8457 4.13839 22.8457H14.4241C15.8384 22.8457 16.9955 21.7457 16.9955 20.4013V8.17904C16.9955 6.83459 15.8384 5.73459 14.4241 5.73459H4.13839C2.72411 5.73459 1.56696 6.83459 1.56696 8.17904V20.4013ZM5.42411 8.17904H13.1384C13.8455 8.17904 14.4241 8.72904 14.4241 9.40126V19.179C14.4241 19.8513 13.8455 20.4013 13.1384 20.4013H5.42411C4.71696 20.4013 4.13839 19.8513 4.13839 19.179V9.40126C4.13839 8.72904 4.71696 8.17904 5.42411 8.17904ZM13.7812 2.06793L12.8684 1.20015C12.637 0.980148 12.3027 0.845703 11.9684 0.845703H6.59411C6.25982 0.845703 5.92554 0.980148 5.69411 1.20015L4.78125 2.06793H1.56696C0.859821 2.06793 0.28125 2.61793 0.28125 3.29015C0.28125 3.96237 0.859821 4.51237 1.56696 4.51237H16.9955C17.7027 4.51237 18.2812 3.96237 18.2812 3.29015C18.2812 2.61793 17.7027 2.06793 16.9955 2.06793H13.7812Z" fill="white"/>
</svg>
